<?xml version="1.0" encoding="UTF-8"?>
<!DOCTYPE svg PUBLIC "-//W3C//DTD SVG 1.1//EN" "http://www.w3.org/Graphics/SVG/1.1/DTD/svg11.dtd">
<!-- Creator: CorelDRAW 2019 (64 Bit) -->
<svg xmlns="http://www.w3.org/2000/svg" xml:space="preserve" width="16px" height="16px" version="1.1" style="shape-rendering:geometricPrecision; text-rendering:geometricPrecision; image-rendering:optimizeQuality; fill-rule:evenodd; clip-rule:evenodd"
viewBox="0 0 24.72 24.72"
 xmlns:xlink="http://www.w3.org/1999/xlink">
 <defs>
  <style type="text/css">
   <![CDATA[
    .fil2 {fill:#FEFEFE}
    .fil1 {fill:#F5BD40}
    .fil0 {fill:#4E0078}
   ]]>
  </style>
 </defs>
 <g id="Camada_x0020_1">
  <metadata id="CorelCorpID_0Corel-Layer"/>
  <g id="_2639059296112">
   <circle class="fil0" cx="12.36" cy="12.36" r="12.36"/>
   <path class="fil1" d="M6.21 7.42c0.66,0 1.28,0.16 1.84,0.45 0.5,0.26 0.95,0.62 1.3,1.07 0.35,-0.45 0.8,-0.81 1.31,-1.07 0.55,-0.29 1.17,-0.45 1.84,-0.45 1.11,0 2.12,0.46 2.84,1.18 0.73,0.73 1.18,1.74 1.18,2.85l0 4.03 -1.76 0 0 -4.03c0,-0.62 -0.25,-1.19 -0.66,-1.6 -0.41,-0.41 -0.98,-0.66 -1.6,-0.66 -0.63,0 -1.19,0.25 -1.6,0.66 -0.41,0.41 -0.67,0.98 -0.67,1.6l0 4.03 -1.76 0 0 -4.03c0,-0.62 -0.25,-1.19 -0.66,-1.6 -0.41,-0.41 -0.98,-0.66 -1.6,-0.66 -0.63,0 -1.19,0.25 -1.6,0.66 -0.41,0.41 -0.67,0.98 -0.67,1.6l0 4.03 -1.76 0 0 -4.03c0,-1.11 0.45,-2.12 1.18,-2.85 0.73,-0.72 1.73,-1.18 2.85,-1.18z"/>
   <path class="fil2" d="M18.79 7.42c1.11,0 2.12,0.46 2.84,1.18 0.73,0.73 1.18,1.74 1.18,2.85 0,1.11 -0.45,2.12 -1.18,2.85 -0.72,0.73 -1.73,1.18 -2.84,1.18 -0.47,0 -0.92,-0.08 -1.34,-0.23 -0.33,-0.11 -0.64,-0.27 -0.93,-0.47l0 4.23 -1.76 0 0 -7.56c0,-1.11 0.45,-2.12 1.18,-2.85 0.73,-0.72 1.73,-1.18 2.85,-1.18zm1.6 2.43c-0.41,-0.41 -0.98,-0.66 -1.6,-0.66 -0.63,0 -1.19,0.25 -1.6,0.66 -0.41,0.41 -0.67,0.98 -0.67,1.6 0,0.63 0.26,1.19 0.67,1.6 0.41,0.41 0.97,0.66 1.6,0.66 0.62,0 1.19,-0.25 1.6,-0.66 0.41,-0.41 0.66,-0.97 0.66,-1.6 0,-0.62 -0.25,-1.19 -0.66,-1.6z"/>
  </g>
 </g>
</svg>
