<?xml version="1.0" encoding="UTF-8"?>
<!DOCTYPE svg PUBLIC "-//W3C//DTD SVG 1.1//EN" "http://www.w3.org/Graphics/SVG/1.1/DTD/svg11.dtd">
<!-- Creator: CorelDRAW 2019 (64 Bit) -->
<svg xmlns="http://www.w3.org/2000/svg" xml:space="preserve" width="60.3711mm" height="8.1839mm" version="1.1" style="shape-rendering:geometricPrecision; text-rendering:geometricPrecision; image-rendering:optimizeQuality; fill-rule:evenodd; clip-rule:evenodd"
viewBox="0 0 2185.52 296.27"
 xmlns:xlink="http://www.w3.org/1999/xlink">
 <defs>
  <style type="text/css">
   <![CDATA[
    .fil0 {fill:#FEFEFE}
    .fil1 {fill:#F5BD40}
   ]]>
  </style>
 </defs>
 <g id="Camada_x0020_1">
  <metadata id="CorelCorpID_0Corel-Layer"/>
  <path class="fil0" d="M1163.2 39.18c24.68,0 47.02,10.01 63.19,26.17 16.17,16.17 26.17,38.51 26.17,63.19 0,24.68 -10.01,47.02 -26.17,63.19 -16.17,16.17 -38.51,26.17 -63.19,26.17 -24.68,0 -47.02,-10.01 -63.19,-26.17 -16.17,-16.17 -26.17,-38.51 -26.17,-63.19 0,-24.68 10.01,-47.02 26.17,-63.19 16.17,-16.17 38.51,-26.17 63.19,-26.17zm35.49 53.87c-9.07,-9.08 -21.63,-14.69 -35.49,-14.69 -13.87,0 -26.42,5.61 -35.48,14.68 -9.08,9.08 -14.7,21.63 -14.7,35.5 0,13.87 5.61,26.42 14.68,35.48 9.08,9.08 21.63,14.7 35.5,14.7 13.87,0 26.42,-5.61 35.48,-14.68 9.08,-9.08 14.7,-21.63 14.7,-35.5 0,-13.87 -5.61,-26.42 -14.69,-35.49z"/>
  <path class="fil1" d="M695.34 39.18c24.68,0 47.02,10.01 63.19,26.17 16.17,16.17 26.17,38.51 26.17,63.19 0,6.73 -0.74,13.29 -2.15,19.59l-11.01 0 -1.21 0 -121.22 0c2.53,5.98 6.2,11.37 10.72,15.9 9.08,9.08 21.63,14.7 35.5,14.7 13.87,0 26.42,-5.61 35.48,-14.68l0.01 -0.01 27.7 27.7c-16.17,16.17 -38.51,26.17 -63.19,26.17 -24.68,0 -47.02,-10.01 -63.19,-26.17 -16.17,-16.17 -26.17,-38.51 -26.17,-63.19 0,-24.68 10.01,-47.02 26.17,-63.19 16.17,-16.17 38.51,-26.17 63.19,-26.17zm46.22 69.77c-2.54,-5.99 -6.2,-11.38 -10.73,-15.9 -9.07,-9.08 -21.63,-14.69 -35.49,-14.69 -13.87,0 -26.42,5.61 -35.48,14.68 -4.53,4.53 -8.2,9.92 -10.74,15.91l92.44 0z"/>
  <polygon class="fil1" points="330.62,39.18 366.19,39.18 366.19,217.91 327,217.91 327,39.18 "/>
  <path class="fil1" d="M882.8 78.36c-13.87,0 -26.42,5.61 -35.48,14.68 -9.08,9.08 -14.7,21.63 -14.7,35.5l0 89.36 -39.18 0 0 -89.36c0,-24.68 10.01,-47.02 26.17,-63.19 16.17,-16.17 38.51,-26.17 63.19,-26.17l3.62 0 0 39.18 -3.62 0z"/>
  <path class="fil1" d="M486.03 202.87c-2.92,2.45 -6.12,4.62 -9.54,6.48 -3.46,1.88 -7.16,3.47 -11.03,4.73 -3.88,1.26 -7.96,2.23 -12.17,2.86 -4.18,0.63 -8.52,0.96 -12.95,0.96 -2.88,0 -5.92,-0.15 -9.06,-0.44 -3.07,-0.28 -6.17,-0.71 -9.27,-1.27 -3.18,-0.57 -6.3,-1.27 -9.32,-2.07 -3.08,-0.82 -6.16,-1.78 -9.21,-2.86 -2.98,-1.06 -5.98,-2.26 -8.92,-3.58 -2.96,-1.33 -5.84,-2.75 -8.57,-4.26l-2.99 -1.68 0 -46.08 9.88 7.39c1.96,1.48 3.98,2.9 6.02,4.22 2.01,1.31 4.05,2.54 6.09,3.67 2.11,1.16 4.19,2.22 6.21,3.15 1.97,0.91 4.04,1.76 6.19,2.55 2.09,0.77 4.15,1.44 6.14,1.99 2.02,0.56 4.06,1.04 6.08,1.42 2.01,0.37 4.03,0.66 6.01,0.84 1.88,0.17 3.86,0.27 5.93,0.27 1.98,0 3.83,-0.12 5.52,-0.34 1.72,-0.23 3.37,-0.58 4.91,-1.03 1.49,-0.43 2.89,-0.97 4.18,-1.61 1.3,-0.66 2.47,-1.38 3.45,-2.14 0.89,-0.7 1.7,-1.49 2.4,-2.36 0.68,-0.83 1.25,-1.73 1.71,-2.67 0.44,-0.91 0.79,-1.94 1.03,-3.05 0.23,-1.07 0.36,-2.22 0.36,-3.43 0,-1.03 -0.16,-1.97 -0.44,-2.81 -0.29,-0.85 -0.74,-1.67 -1.31,-2.45 -0.62,-0.84 -1.41,-1.64 -2.31,-2.4 -0.99,-0.81 -2.13,-1.59 -3.39,-2.32 -1.53,-0.91 -3.24,-1.76 -5.06,-2.55 -1.89,-0.82 -3.91,-1.59 -6,-2.32 -2.04,-0.71 -4.3,-1.43 -6.73,-2.16l-7.22 -2.09c-3.08,-0.87 -6.24,-1.78 -9.58,-2.81 -3.22,-0.99 -6.45,-2.07 -9.63,-3.25 -3.22,-1.2 -6.38,-2.52 -9.38,-3.98 -3.07,-1.49 -6.01,-3.14 -8.76,-5 -2.96,-2 -5.71,-4.23 -8.16,-6.72 -2.48,-2.52 -4.68,-5.31 -6.48,-8.42 -1.81,-3.11 -3.25,-6.54 -4.23,-10.32 -0.97,-3.76 -1.5,-7.84 -1.5,-12.26 0,-3.83 0.39,-7.54 1.14,-11.08 0.77,-3.62 1.92,-7.08 3.42,-10.33 1.52,-3.31 3.41,-6.41 5.6,-9.26 2.22,-2.88 4.78,-5.54 7.63,-7.94 2.79,-2.35 5.87,-4.45 9.18,-6.26 3.3,-1.8 6.84,-3.33 10.56,-4.55 3.68,-1.21 7.57,-2.14 11.61,-2.75 3.98,-0.6 8.12,-0.92 12.37,-0.92 2.47,0 5.02,0.11 7.6,0.32 2.51,0.2 5.16,0.53 7.89,0.96 2.75,0.43 5.4,0.95 7.94,1.54 2.59,0.6 5.25,1.32 7.95,2.15 2.75,0.84 5.36,1.74 7.81,2.68 2.57,0.98 5.1,2.06 7.54,3.19l3.9 1.86 0 44.1 -9.87 -6.37c-1.69,-1.09 -3.42,-2.14 -5.18,-3.12 -1.82,-1.02 -3.59,-1.95 -5.26,-2.75 -1.73,-0.83 -3.53,-1.62 -5.38,-2.37 -1.76,-0.72 -3.55,-1.37 -5.35,-1.96 -1.75,-0.57 -3.51,-1.08 -5.24,-1.51 -1.73,-0.43 -3.46,-0.8 -5.15,-1.08 -1.76,-0.3 -3.42,-0.52 -4.99,-0.66 -1.61,-0.13 -3.22,-0.2 -4.8,-0.2 -1.85,0 -3.55,0.1 -5.08,0.3 -1.56,0.2 -3.07,0.51 -4.51,0.93 -1.39,0.4 -2.67,0.88 -3.81,1.43 -1.17,0.58 -2.21,1.21 -3.09,1.89 -0.82,0.63 -1.56,1.34 -2.17,2.08 -0.6,0.72 -1.12,1.51 -1.53,2.35 -0.41,0.83 -0.73,1.71 -0.94,2.64 -0.2,0.9 -0.31,1.88 -0.31,2.91 0,1.74 0.71,3.31 1.97,4.73 1.51,1.71 3.83,3.28 6.69,4.77 3.21,1.67 6.98,3.17 11.07,4.58 4.16,1.44 8.78,2.85 13.48,4.28l0.61 0.17c2.93,0.87 6.03,1.83 9.44,2.96 3.24,1.08 6.43,2.22 9.43,3.44 3.11,1.25 6.18,2.64 9.15,4.2 2.98,1.56 5.84,3.28 8.5,5.2 2.82,2.01 5.46,4.28 7.85,6.83 2.39,2.55 4.48,5.36 6.21,8.45 1.74,3.11 3.12,6.51 4.05,10.21 0.92,3.69 1.43,7.69 1.43,12.02 0,4.03 -0.41,7.91 -1.17,11.61 -0.79,3.81 -1.96,7.4 -3.47,10.74 -1.55,3.44 -3.49,6.65 -5.74,9.61 -2.3,3.02 -4.93,5.76 -7.86,8.22z"/>
  <path class="fil1" d="M89.36 39.18c14.69,0 28.58,3.56 40.82,9.86 11.25,5.79 21.11,13.89 28.95,23.67 7.84,-9.78 17.7,-17.88 28.95,-23.67 12.24,-6.3 26.13,-9.86 40.82,-9.86 24.68,0 47.02,10.01 63.19,26.17 16.17,16.17 26.17,38.51 26.17,63.19l0 89.36 -39.18 0 0 -89.36c0,-13.87 -5.61,-26.42 -14.68,-35.48 -9.08,-9.08 -21.63,-14.7 -35.5,-14.7 -13.87,0 -26.42,5.61 -35.48,14.68 -9.08,9.08 -14.7,21.63 -14.7,35.5l0 89.36 -39.18 0 0 -89.36c0,-13.87 -5.61,-26.42 -14.68,-35.48 -9.08,-9.08 -21.63,-14.7 -35.5,-14.7 -13.87,0 -26.42,5.61 -35.48,14.68 -9.08,9.08 -14.7,21.63 -14.7,35.5l0 89.36 -39.18 0 0 -89.36c0,-24.68 10.01,-47.02 26.17,-63.19 16.17,-16.17 38.51,-26.17 63.19,-26.17z"/>
  <path class="fil1" d="M566.87 164.04c9.07,9.08 21.62,14.69 35.49,14.69l3.62 0 0 39.18 -3.62 0c-24.68,0 -47.02,-10.01 -63.19,-26.17 -16.17,-16.17 -26.17,-38.51 -26.17,-63.19l0 -128.54 39.18 0 0 39.18 53.8 0 0 39.18 -53.8 0 0 50.18c0,13.87 5.61,26.42 14.69,35.49z"/>
  <path class="fil0" d="M975.79 39.18c24.68,0 47.02,10.01 63.19,26.17 16.17,16.17 26.17,38.51 26.17,63.19 0,24.68 -10.01,47.02 -26.17,63.19 -16.17,16.17 -38.51,26.17 -63.19,26.17 -10.4,0 -20.42,-1.79 -29.73,-5.08 -7.29,-2.57 -14.16,-6.07 -20.45,-10.35l0 93.79 -39.18 0 0 -167.73c0,-24.68 10.01,-47.02 26.17,-63.19 16.17,-16.17 38.51,-26.17 63.19,-26.17zm35.49 53.87c-9.07,-9.08 -21.63,-14.69 -35.49,-14.69 -13.87,0 -26.42,5.61 -35.48,14.68 -9.08,9.08 -14.7,21.63 -14.7,35.5 0,13.87 5.61,26.42 14.68,35.48 9.08,9.08 21.63,14.7 35.5,14.7 13.87,0 26.42,-5.61 35.48,-14.68 9.08,-9.08 14.7,-21.63 14.7,-35.5 0,-13.87 -5.61,-26.42 -14.69,-35.49z"/>
  <path class="fil0" d="M1581.7 39.18c14.69,0 28.58,3.56 40.82,9.86 11.25,5.79 21.11,13.89 28.95,23.67 7.84,-9.78 17.7,-17.88 28.95,-23.67 12.24,-6.3 26.13,-9.86 40.82,-9.86 24.68,0 47.02,10.01 63.19,26.17 16.17,16.17 26.17,38.51 26.17,63.19l0 89.36 -39.18 0 0 -89.36c0,-13.87 -5.61,-26.42 -14.68,-35.48 -9.08,-9.08 -21.63,-14.7 -35.5,-14.7 -13.87,0 -26.42,5.61 -35.48,14.68 -9.08,9.08 -14.7,21.63 -14.7,35.5l0 89.36 -39.18 0 0 -89.36c0,-13.87 -5.61,-26.42 -14.68,-35.48 -9.08,-9.08 -21.63,-14.7 -35.5,-14.7 -13.87,0 -26.42,5.61 -35.48,14.68 -9.08,9.08 -14.7,21.63 -14.7,35.5l0 89.36 -39.18 0 0 -89.36c0,-24.68 10.01,-47.02 26.17,-63.19 16.17,-16.17 38.51,-26.17 63.19,-26.17z"/>
  <path class="fil0" d="M2096.16 39.18c24.68,0 47.02,10.01 63.19,26.17 16.17,16.17 26.17,38.51 26.17,63.19l0 89.36 -39.18 0 0 -89.36c0,-13.87 -5.61,-26.42 -14.68,-35.48 -9.08,-9.08 -21.63,-14.7 -35.5,-14.7 -13.87,0 -26.42,5.61 -35.48,14.68 -9.08,9.08 -14.7,21.63 -14.7,35.5l0 89.36 -39.18 0 0 -89.36c0,-24.68 10.01,-47.02 26.17,-63.19 16.17,-16.17 38.51,-26.17 63.19,-26.17z"/>
  <path class="fil0" d="M1908.7 39.18c24.68,0 47.02,10.01 63.19,26.17 16.17,16.17 26.17,38.51 26.17,63.19l0 89.36 -39.18 0 0 -15.43c-6.29,4.28 -13.16,7.78 -20.45,10.35 -9.31,3.28 -19.32,5.08 -29.73,5.08 -24.68,0 -47.02,-10.01 -63.19,-26.17 -16.17,-16.17 -26.17,-38.51 -26.17,-63.19 0,-24.68 10.01,-47.02 26.17,-63.19 16.17,-16.17 38.51,-26.17 63.19,-26.17zm35.49 53.87c-9.07,-9.08 -21.63,-14.69 -35.49,-14.69 -13.87,0 -26.42,5.61 -35.48,14.68 -9.08,9.08 -14.7,21.63 -14.7,35.5 0,13.87 5.61,26.42 14.68,35.48 9.08,9.08 21.63,14.7 35.5,14.7 13.87,0 26.42,-5.61 35.48,-14.68 9.08,-9.08 14.7,-21.63 14.7,-35.5 0,-13.87 -5.61,-26.42 -14.69,-35.49z"/>
  <path class="fil0" d="M1444.49 164.04c9.07,9.08 21.62,14.69 35.49,14.69l3.62 0 0 39.18 -3.62 0c-24.68,0 -47.02,-10.01 -63.19,-26.17 -16.17,-16.17 -26.17,-38.51 -26.17,-63.19l0 -128.54 39.18 0 0 39.18 53.8 0 0 39.18 -53.8 0 0 50.18c0,13.87 5.61,26.42 14.69,35.49z"/>
  <path class="fil0" d="M1363.67 202.87c-2.92,2.45 -6.12,4.62 -9.54,6.48 -3.46,1.88 -7.16,3.47 -11.03,4.73 -3.88,1.26 -7.96,2.23 -12.17,2.86 -4.18,0.63 -8.52,0.96 -12.95,0.96 -2.88,0 -5.92,-0.15 -9.06,-0.44 -3.07,-0.28 -6.17,-0.71 -9.27,-1.27 -3.18,-0.57 -6.3,-1.27 -9.32,-2.07 -3.08,-0.82 -6.16,-1.78 -9.21,-2.86 -2.98,-1.06 -5.98,-2.26 -8.92,-3.58 -2.96,-1.33 -5.84,-2.75 -8.57,-4.26l-2.99 -1.68 0 -46.08 9.88 7.39c1.96,1.48 3.98,2.9 6.02,4.22 2.01,1.31 4.05,2.54 6.09,3.67 2.11,1.16 4.19,2.22 6.21,3.15 1.97,0.91 4.04,1.76 6.19,2.55 2.09,0.77 4.15,1.44 6.14,1.99 2.02,0.56 4.06,1.04 6.08,1.42 2.01,0.37 4.03,0.66 6.01,0.84 1.88,0.17 3.86,0.27 5.93,0.27 1.98,0 3.83,-0.12 5.52,-0.34 1.72,-0.23 3.37,-0.58 4.91,-1.03 1.49,-0.43 2.89,-0.97 4.18,-1.61 1.3,-0.66 2.47,-1.38 3.45,-2.14 0.89,-0.7 1.7,-1.49 2.4,-2.36 0.68,-0.83 1.25,-1.73 1.71,-2.67 0.44,-0.91 0.79,-1.94 1.03,-3.05 0.23,-1.07 0.36,-2.22 0.36,-3.43 0,-1.03 -0.16,-1.97 -0.44,-2.81 -0.29,-0.85 -0.74,-1.67 -1.31,-2.45 -0.62,-0.84 -1.41,-1.64 -2.31,-2.4 -0.99,-0.81 -2.13,-1.59 -3.39,-2.32 -1.53,-0.91 -3.24,-1.76 -5.06,-2.55 -1.89,-0.82 -3.91,-1.59 -6,-2.32 -2.04,-0.71 -4.3,-1.43 -6.73,-2.16l-7.22 -2.09c-3.08,-0.87 -6.24,-1.78 -9.58,-2.81 -3.22,-0.99 -6.45,-2.07 -9.63,-3.25 -3.22,-1.2 -6.38,-2.52 -9.38,-3.98 -3.07,-1.49 -6.01,-3.14 -8.76,-5 -2.96,-2 -5.71,-4.23 -8.16,-6.72 -2.48,-2.52 -4.68,-5.31 -6.48,-8.42 -1.81,-3.11 -3.25,-6.54 -4.23,-10.32 -0.97,-3.76 -1.5,-7.84 -1.5,-12.26 0,-3.83 0.39,-7.54 1.14,-11.08 0.77,-3.62 1.92,-7.08 3.42,-10.33 1.52,-3.31 3.41,-6.41 5.6,-9.26 2.22,-2.88 4.78,-5.54 7.63,-7.94 2.79,-2.35 5.87,-4.45 9.18,-6.26 3.3,-1.8 6.84,-3.33 10.56,-4.55 3.68,-1.21 7.57,-2.14 11.61,-2.75 3.98,-0.6 8.12,-0.92 12.37,-0.92 2.47,0 5.02,0.11 7.6,0.32 2.51,0.2 5.16,0.53 7.89,0.96 2.75,0.43 5.4,0.95 7.94,1.54 2.59,0.6 5.25,1.32 7.95,2.15 2.75,0.84 5.36,1.74 7.81,2.68 2.57,0.98 5.1,2.06 7.54,3.19l3.9 1.86 0 44.1 -9.87 -6.37c-1.69,-1.09 -3.42,-2.14 -5.18,-3.12 -1.82,-1.02 -3.59,-1.95 -5.26,-2.75 -1.73,-0.83 -3.53,-1.62 -5.38,-2.37 -1.76,-0.72 -3.55,-1.37 -5.35,-1.96 -1.75,-0.57 -3.51,-1.08 -5.24,-1.51 -1.73,-0.43 -3.46,-0.8 -5.15,-1.08 -1.76,-0.3 -3.42,-0.52 -4.99,-0.66 -1.61,-0.13 -3.22,-0.2 -4.8,-0.2 -1.85,0 -3.55,0.1 -5.08,0.3 -1.56,0.2 -3.07,0.51 -4.51,0.93 -1.39,0.4 -2.67,0.88 -3.81,1.43 -1.17,0.58 -2.21,1.21 -3.09,1.89 -0.82,0.63 -1.56,1.34 -2.17,2.08 -0.6,0.72 -1.12,1.51 -1.53,2.35 -0.41,0.83 -0.73,1.71 -0.94,2.64 -0.2,0.9 -0.31,1.88 -0.31,2.91 0,1.74 0.71,3.31 1.97,4.73 1.51,1.71 3.83,3.28 6.69,4.77 3.21,1.67 6.98,3.17 11.07,4.58 4.16,1.44 8.78,2.85 13.48,4.28l0.61 0.17c2.93,0.87 6.03,1.83 9.44,2.96 3.24,1.08 6.43,2.22 9.43,3.44 3.11,1.25 6.18,2.64 9.15,4.2 2.98,1.56 5.84,3.28 8.5,5.2 2.82,2.01 5.46,4.28 7.85,6.83 2.39,2.55 4.48,5.36 6.21,8.45 1.74,3.11 3.12,6.51 4.05,10.21 0.92,3.69 1.43,7.69 1.43,12.02 0,4.03 -0.41,7.91 -1.17,11.61 -0.79,3.81 -1.96,7.4 -3.47,10.74 -1.55,3.44 -3.49,6.65 -5.74,9.61 -2.3,3.02 -4.93,5.76 -7.86,8.22z"/>
 </g>
</svg>
